# xmcd
#
# Track frame offsets:
#	150
#	15425
#	38300
#	57290
#	76937
#	92475
#	113967
#	134165
#	148787
#	170550
#	199055
#	213220
#	235377
#	246220
#	258925
#
# Disc length: 3727 seconds
#
# Revision: 1
# Processed by: cddbd v1.5PL3 Copyright (c) Steve Scherf et al.
# Submitted via: audiograbber 1.83.01
#
DISCID=c90e8d0f
DTITLE=Lillian Boutte - Live In Tivolli
DYEAR=1992
DGENRE=Blues
TTITLE0=Down In Honky Tonk Town
TTITLE1=I Thought About You
TTITLE2=Is You Is Or Is You Ain't My Baby
TTITLE3=Frim Fram Sauce
TTITLE4=Hop Scop Blues
TTITLE5=Please Send Me Someone to Love
TTITLE6=On Revival Day
TTITLE7=Boot It Boy
TTITLE8=Cheek To Cheek
TTITLE9=The Very Thought Of You
TTITLE10=Doctor Jazz
TTITLE11=Dream A Little Dream Of Me
TTITLE12=Messin' Around
TTITLE13=Kiss Me Sweet
TTITLE14=Strange Things Happen Every Day
EXTD=Recorded July 9, 10, 11 1992
EXTT0=
EXTT1=
EXTT2=
EXTT3=
EXTT4=
EXTT5=
EXTT6=
EXTT7=
EXTT8=
EXTT9=
EXTT10=
EXTT11=
EXTT12=
EXTT13=
EXTT14=
PLAYORDER=
